<svg xmlns="http://www.w3.org/2000/svg" width="549" height="189" viewBox="0 0 549 189">
  <g id="Group_103" data-name="Group 103" transform="translate(11105 -3702)">
    <rect id="Rectangle_132" data-name="Rectangle 132" width="549" height="189" rx="23" transform="translate(-11105 3702)" fill="none"/>
    <path id="Path_188" data-name="Path 188" d="M45.189-123.7q16.531,0,26.646,10.086T81.95-87.112A43.859,43.859,0,0,1,76.68-65.69a33,33,0,0,1-7.388,9.406,45.181,45.181,0,0,1-11.353,6.8q-1.956.87-2.01,1.468-.054.822,3.422,2.631l6.085,3.235A18.882,18.882,0,0,0,74.453-39.8q3.1,0,6.845-2.983a2.042,2.042,0,0,1,.978-.5q.435-.054.924.6a1.749,1.749,0,0,1,.435,1.2q-.109,1.142-3.807,4.4Q72.6-30.769,65.962-30.769a23.342,23.342,0,0,1-8.483-1.74,90.532,90.532,0,0,1-12.235-6.362q-9.462-5.547-12.616-6.988A14.52,14.52,0,0,0,26.591-47.3a9.34,9.34,0,0,0-7.423,3.589,13.146,13.146,0,0,0-3.018,8.755q0,1.74-1.414,1.74Q13-33.216,13-35.5l-.163-4.187.756-3.589q1.241-3.48,5.561-7.831.54-.544.54-.816,0-.381-2.494-2.23A30.739,30.739,0,0,1,7.575-66.741,41.856,41.856,0,0,1,3.97-83.9q0-17.782,11.42-28.794T45.189-123.7Zm-5.5,4.187q-10.571,0-16.728,7.667T16.8-91.076q0,17.619,8.255,29.011T46.065-50.672A20.649,20.649,0,0,0,63.284-59.1q6.484-8.429,6.484-22.35,0-15.879-8.773-26.972T39.689-119.516ZM140.975-93.363v33.674q0,5.214.87,6.436t4.677,1.222l1.251-.054a3.275,3.275,0,0,1,.979.11,1.223,1.223,0,0,1,.924,1.217q0,1.936-3.708,1.936H143.35q-2.236,0-3.49.109a45.382,45.382,0,0,0-7.744,1.305,3.457,3.457,0,0,1-.981.163q-1.2,0-1.2-2.012a13.346,13.346,0,0,1,.109-1.849q.109-1.088.109-1.631,0-1.631-.706-1.686-.271,0-.868.653l-1.954,2.012a16.014,16.014,0,0,1-12,5.22q-8.034,0-12.105-4.454t-4.072-13.2q0-11.568.435-20.041.054-1.521.054-2.607,0-3.694-3.208-3.965l-2.175-.163q-1.523-.11-1.414-1.493.054-1.051,1.664-1.41A34.235,34.235,0,0,1,100-94.23a24.369,24.369,0,0,0,7.582-1.088,8.728,8.728,0,0,1,2.291-.435q.925,0,.925,1.25,0,1.467-.109,2.987-.489,5.757-.489,20.149,0,11.079,2,14.8t8,3.72a9.241,9.241,0,0,0,7.247-2.828q2.542-2.828,2.542-8.085V-83.976q0-4.607-.843-5.664t-4.758-1.545q-1.686-.166-1.686-1.329,0-1.716,3.272-1.716,9.491,0,13.145-1.305a3.4,3.4,0,0,1,1.145-.272q.763-.054.763,1.086Zm37.818-.7a19.055,19.055,0,0,1,14.519,6.634q5.112,5.6,5.112,11.2,0,2.121-2.931,2.121l-2.5-.109h-1.249l-3.311.054L178.176-74l-5.373.054L170.957-74a3.4,3.4,0,0,0-2.008.382,2.681,2.681,0,0,0-.6,2.017,19.108,19.108,0,0,0,4.695,12.732q4.695,5.534,10.828,5.534,6.893,0,11.018-4.005l1.737-1.7a1.294,1.294,0,0,1,.924-.439q1.2,0,1.2,1.142,0,1.577-4.187,5.275-7.4,6.526-15.879,6.526a19.843,19.843,0,0,1-15.335-6.471q-5.927-6.471-5.927-16.694a25.147,25.147,0,0,1,6.335-17.129Q170.092-94.066,178.792-94.066Zm-1.52,2.773q-3.677,0-6.435,3.616a13.658,13.658,0,0,0-2.758,8.527q0,1.565.784,1.889a15.613,15.613,0,0,0,4.244.324q1.785,0,3.785-.109,4.867-.216,5.624-.216,4.758,0,4.758-2.914a11.2,11.2,0,0,0-3.055-7.744A9.18,9.18,0,0,0,177.272-91.293Zm48.8,15.92v15.256q0,8.577,8.048,9.663,1.686.222,1.686,1.331,0,1.388-1.253,1.388a9.136,9.136,0,0,1-1.526-.163,75.739,75.739,0,0,0-11.225-.816q-3.051,0-5.5.218l-3.379.326a16.34,16.34,0,0,1-1.907.109q-1.526,0-1.526-1.442,0-1,1.359-1.331,4.3-1.03,4.3-8.079l-.054-2.277V-80.6q0-3.9-1.006-5.177t-4.323-1.545q-1.251-.111-1.251-1.167,0-1.222,1.474-1.444a36.506,36.506,0,0,0,12.773-4.187l2.121-1.251a1.556,1.556,0,0,1,.816-.272q.816,0,.816,1.2,0,.381-.054,1.577l-.163,3.045-.218,3.372.054.6q.216.761.809.816.539.054,2.371-2.61a21.982,21.982,0,0,1,4.5-4.432q3.044-2.365,4.176-2.365,1.86,0,5.552,2.828t3.747,4.242a18.168,18.168,0,0,1-1.757,3.807q-2.251,4.187-3.953,4.187a1.883,1.883,0,0,1-1.3-.544l-1.512-1.359a9.02,9.02,0,0,0-6.318-2.556Q226.072-83.843,226.072-75.374ZM268.9-81.885l9.3,17.673q1.314,2.447,1.915,2.447.813,0,2.439-4.078L285-71.934q3.686-9.3,3.686-13.323a4.884,4.884,0,0,0-1.6-3.507,8.018,8.018,0,0,0-3.943-2.148q-1.468-.272-1.523-1.142-.054-1.2,1.2-1.2.6,0,1.8.109a74.413,74.413,0,0,0,7.854.489,44.012,44.012,0,0,0,4.909-.218q1.364-.163,1.854-.163,1.091,0,1.091,1.2,0,1.088-1.414,1.468-3.263.87-5.547,6.526l-1.094,2.719L272.155-31.15A2.3,2.3,0,0,1,270-29.464q-.432,0-1.4-.054l-3.023-.218q-.864-.054-.81-.653a2.359,2.359,0,0,1,.49-1.088q8.88-10.985,8.88-15.009a9.185,9.185,0,0,0-1.2-3.535l-17.362-34.2L254.1-87.16a7.182,7.182,0,0,0-3.915-3.372q-.979-.381-.979-1.088,0-1.414,1.628-1.414a11.867,11.867,0,0,1,1.573.109,80.265,80.265,0,0,0,8.41.489,82.034,82.034,0,0,0,9.875-.6,7.672,7.672,0,0,1,1.085-.109,1.248,1.248,0,0,1,1.41,1.414,1.411,1.411,0,0,1-1.305,1.468l-1.686.272a3.247,3.247,0,0,0-3.045,3.48Q267.152-85.311,268.9-81.885Zm62.005-12.072q10.278,0,16.966,6.518a22.143,22.143,0,0,1,6.689,16.567,23.1,23.1,0,0,1-7.26,17.354,25.063,25.063,0,0,1-18.081,6.98A23.562,23.562,0,0,1,312.284-53a21.512,21.512,0,0,1-6.77-16.24,23.505,23.505,0,0,1,7.423-17.491A24.823,24.823,0,0,1,330.909-93.958Zm-2.818,2.991a9.659,9.659,0,0,0-8.341,4.442q-3.088,4.442-3.088,11.971,0,10.291,4.767,17.658t11.483,7.367a10.024,10.024,0,0,0,8.315-4.2q3.223-4.2,3.223-10.806,0-11.05-4.767-18.742T328.09-90.967ZM0-38.217H6.772V-32.1H0Zm87.2,0H258.586V-32.1H87.2Zm193.92,0h76.925V-32.1H281.119Z" transform="translate(-11009.521 3873.083)" fill="#0d2487"/>
  </g>
</svg>
